<svg width="48" height="48" viewBox="0 0 48 48" fill="none" xmlns="http://www.w3.org/2000/svg">
<path d="M16.5704 14.1376C17.5812 14.0874 19.0541 14.1418 20.1205 14.1381L27.3858 14.1309C28.2717 14.1361 29.1581 14.133 30.0439 14.1215C30.5686 14.1163 31.1156 14.098 31.6397 14.1448C32.812 14.2497 33.979 15.3757 34.0772 16.5582C34.1419 17.3294 34.1108 18.1691 34.109 18.9508L34.1037 23.3983L34.1072 28.6823C34.1049 29.6496 34.1378 30.638 34.0367 31.5982C33.892 32.9655 32.7573 33.8969 31.428 34.034L21.4117 34.0304C19.8416 34.0275 18.2718 34.051 16.6999 34.0151C15.4585 33.991 14.466 33.1409 14.1105 31.9671C13.9578 31.4629 14.0221 30.4656 14.0224 29.9078L14.0288 19.8358C14.0298 18.7572 13.9988 17.643 14.0721 16.5703C14.1578 15.3177 15.369 14.2908 16.5704 14.1376Z" fill="#FCFBFB"/>
<path d="M2.68813 0.0738418C2.90547 0.0611922 3.12299 0.0526007 3.34068 0.0480115C6.5294 -0.0209437 9.73364 0.0474845 12.9237 0.0425424C13.7991 0.0411892 16.8239 -0.0803674 17.5371 0.0936679C18.0769 0.225342 18.6604 0.762511 19.0526 1.14424C19.4472 1.52837 19.8398 2.00959 20.017 2.53781C20.3015 3.38634 20.1596 6.8944 20.1716 8.05276C19.6529 8.08976 18.941 8.06229 18.4077 8.0647C17.0607 8.07682 15.7135 8.07423 14.3665 8.05699C11.8074 8.03481 9.43683 7.70069 8.19719 10.5088C7.87227 11.5083 7.98662 14.0943 7.98962 15.272L7.99532 19.9855C6.71145 19.9684 3.25757 20.2106 2.26392 19.7015C1.4489 19.284 0.342959 18.1373 0.09856 17.2372C-0.0652549 16.634 0.0453285 13.9084 0.0429168 13.0991L0.039858 6.61552C0.0395051 5.35209 0.0144473 4.05495 0.0844437 2.7951C0.0993252 2.52734 0.165203 2.34866 0.292961 2.11832C0.833168 1.14465 1.61489 0.402379 2.68813 0.0738418Z" fill="#FCFBFB"/>
<path d="M3.41244 28.0869C4.8686 28.0757 6.53975 28.0328 7.97968 28.0934C8.15778 30.8992 7.78704 34.204 8.06391 36.9881C8.18278 38.1842 9.75417 39.6781 10.8815 39.8875C11.7421 40.047 13.1851 39.9928 14.1542 39.9917C16.1564 39.9805 18.1587 39.9793 20.161 39.9893C20.1899 40.8424 20.1415 41.7555 20.1566 42.5939C20.1858 44.216 20.3471 45.5663 19.088 46.7966C18.3959 47.4726 17.7627 47.9091 16.7382 47.9356C13.6107 47.8991 10.4681 47.9509 7.3333 47.9227C5.84814 47.9086 4.18705 47.9992 2.71119 47.8609C2.29621 47.7826 1.86141 47.5355 1.53325 47.2914C0.949456 46.8572 0.229495 45.9788 0.0807384 45.2451C0.000801451 44.8515 0.0401534 43.7001 0.037036 43.2441L0.0360343 38.7979L0.0277986 33.791C0.0298573 32.406 -0.220187 30.7986 0.741409 29.7313C1.49037 28.9 2.25645 28.2087 3.41244 28.0869Z" fill="#FCFBFB"/>
<path d="M30.9509 0.0697234C32.4785 0.00847563 45.0561 -0.0348257 45.5461 0.148564C46.4472 0.485868 47.3724 1.42282 47.7459 2.304C47.883 2.62724 47.9136 2.94313 47.9318 3.28985C48.0618 5.80289 47.9577 8.36535 47.9518 10.8849C47.9477 12.7545 48.0542 14.6686 47.963 16.5315C47.9465 16.871 47.9171 17.2174 47.7818 17.5322C47.3024 18.644 46.2848 19.4644 45.1843 19.9033C44.5943 20.0375 40.9334 19.9882 40.0669 19.9952C40.0516 17.9112 40.1246 15.8014 40.0887 13.7286C40.0581 11.9701 40.4287 10.528 39.0893 9.16863C38.1376 8.1263 37.1941 8.08194 35.8707 8.06446C33.3032 8.03058 30.6998 8.11459 28.1364 8.03422C28.114 6.73455 27.9046 3.44941 28.374 2.39514C28.8752 1.27026 29.8286 0.512107 30.9509 0.0697234Z" fill="#FCFBFB"/>
<path d="M40.1505 28.0734C41.5569 28.0792 42.9603 28.0528 44.3708 28.0645C45.4584 28.0739 46.0431 28.5358 46.806 29.2612C47.8059 30.2179 47.9706 30.8286 47.9677 32.1742C47.9712 36.288 47.9589 40.3729 47.9565 44.4896C48.0459 45.8017 46.9954 47.242 45.7902 47.7038C44.9596 48.0221 43.0944 47.9233 42.1262 47.9256H35.7966C33.5337 47.9162 30.6204 48.4693 29.074 46.6954C27.9664 45.4251 28.1005 44.3555 28.1046 42.7705C28.107 41.8226 28.0864 40.916 28.134 39.9852L33.8037 39.9911C34.8231 39.9905 35.9171 40.0693 36.9294 39.944C37.2977 39.8987 37.6576 39.7693 37.9876 39.6028C38.8099 39.1874 39.5552 38.4584 39.8775 37.5841C40.2252 36.6392 40.0934 31.2969 40.0787 29.9602C40.0734 29.5066 39.9699 28.5329 40.1175 28.151C40.1275 28.1245 40.1393 28.0992 40.1505 28.0734Z" fill="#FCFBFB"/>
</svg>
