<svg version="1.1" xmlns="http://www.w3.org/2000/svg" viewBox="600 600 860 860" width="28" height="28" preserveAspectRatio="xMidYMid meet">
<path fill="white" d="M 905.888 860.411 C 923.072 859.557 948.113 860.482 966.243 860.419 L 1089.76 860.296 C 1104.82 860.385 1119.89 860.332 1134.95 860.136 C 1143.87 860.048 1153.17 859.738 1162.08 860.533 C 1182.01 862.315 1201.85 881.454 1203.52 901.553 C 1204.62 914.66 1204.09 928.932 1204.06 942.218 L 1203.97 1017.81 L 1204.03 1107.62 C 1203.99 1124.06 1204.55 1140.86 1202.83 1157.18 C 1200.37 1180.42 1181.08 1196.25 1158.48 1198.58 L 988.194 1198.52 C 961.501 1198.47 934.814 1198.87 908.09 1198.26 C 886.984 1197.85 870.112 1183.4 864.068 1163.45 C 861.471 1154.88 862.565 1137.93 862.57 1128.45 L 862.599 1061.07 L 862.678 957.26 C 862.695 938.928 862.168 919.99 863.415 901.758 C 864.871 880.468 885.463 863.015 905.888 860.411 z"/>
<path fill="white" d="M 669.877 621.375 C 673.572 621.16 677.27 621.014 680.971 620.936 C 735.182 619.764 789.657 620.927 843.891 620.843 C 858.774 620.82 910.197 618.754 922.322 621.712 C 931.499 623.95 941.42 633.08 948.088 639.568 C 954.797 646.097 961.471 654.276 964.483 663.254 C 969.32 677.676 966.908 737.301 967.111 756.989 C 958.294 757.618 946.19 757.151 937.124 757.192 C 914.223 757.398 891.32 757.354 868.42 757.061 C 824.913 756.684 784.611 751.005 763.536 798.734 C 758.012 815.721 759.956 859.674 760.007 879.692 L 760.104 959.805 C 738.277 959.514 679.558 963.63 662.665 954.978 C 648.809 947.881 630.007 928.391 625.852 913.093 C 623.067 902.841 624.947 856.515 624.906 842.759 L 624.854 732.561 C 624.848 711.087 624.422 689.04 625.612 667.627 C 625.865 663.076 626.985 660.039 629.157 656.124 C 638.341 639.575 651.631 626.959 669.877 621.375 z"/>
<path fill="white" d="M 682.191 1097.5 C 706.947 1097.31 735.358 1096.58 759.838 1097.61 C 762.866 1145.3 756.563 1201.47 761.27 1248.79 C 763.291 1269.12 790.006 1294.51 809.171 1298.07 C 823.802 1300.78 848.335 1299.86 864.81 1299.84 C 898.85 1299.65 932.891 1299.63 966.931 1299.8 C 967.423 1314.3 966.6 1329.82 966.857 1344.07 C 967.353 1371.64 970.096 1394.59 948.689 1415.5 C 936.923 1426.99 926.158 1434.41 908.74 1434.86 C 855.571 1434.24 802.143 1435.12 748.849 1434.64 C 723.6 1434.4 695.36 1435.94 670.269 1433.59 C 663.214 1432.26 655.822 1428.06 650.243 1423.91 C 640.318 1416.53 628.078 1401.6 625.549 1389.13 C 624.19 1382.44 624.859 1362.87 624.806 1355.12 L 624.789 1279.55 L 624.649 1194.45 C 624.684 1170.91 620.433 1143.59 636.781 1125.45 C 649.514 1111.32 662.538 1099.57 682.191 1097.5 z"/>
<path fill="white" d="M 1150.37 621.305 C 1176.34 620.264 1390.17 619.528 1398.5 622.645 C 1413.82 628.378 1429.55 644.303 1435.9 659.28 C 1438.23 664.774 1438.75 670.143 1439.06 676.036 C 1441.27 718.749 1439.5 762.302 1439.4 805.125 C 1439.33 836.902 1441.14 869.436 1439.59 901.099 C 1439.31 906.868 1438.81 912.756 1436.51 918.107 C 1428.36 937.003 1411.06 950.948 1392.35 958.407 C 1382.32 960.689 1320.08 959.85 1305.35 959.969 C 1305.09 924.548 1306.33 888.689 1305.72 853.459 C 1305.2 823.571 1311.5 799.059 1288.73 775.955 C 1272.55 758.239 1256.51 757.485 1234.01 757.188 C 1190.36 756.612 1146.1 758.04 1102.52 756.674 C 1102.14 734.584 1098.58 678.748 1106.56 660.829 C 1115.08 641.71 1131.29 628.824 1150.37 621.305 z"/>
<path fill="white" d="M 1306.77 1097.27 C 1330.68 1097.37 1354.54 1096.92 1378.52 1097.12 C 1397.01 1097.28 1406.95 1105.13 1419.92 1117.46 C 1436.92 1133.72 1439.72 1144.1 1439.67 1166.97 C 1439.73 1236.89 1439.52 1306.32 1439.48 1376.29 C 1441 1398.59 1423.14 1423.07 1402.65 1430.92 C 1388.53 1436.33 1356.82 1434.65 1340.36 1434.69 L 1232.75 1434.69 C 1194.28 1434.53 1144.75 1443.93 1118.46 1413.78 C 1099.63 1392.19 1101.91 1374.01 1101.98 1347.07 C 1102.02 1330.96 1101.67 1315.55 1102.48 1299.73 L 1198.87 1299.83 C 1216.2 1299.82 1234.8 1301.16 1252.01 1299.03 C 1258.27 1298.26 1264.39 1296.06 1270 1293.23 C 1283.98 1286.17 1296.65 1273.78 1302.13 1258.92 C 1308.04 1242.86 1305.8 1152.06 1305.55 1129.34 C 1305.46 1121.63 1303.7 1105.08 1306.21 1098.59 C 1306.38 1098.14 1306.58 1097.71 1306.77 1097.27 z"/>
</svg>
