<svg viewBox="0 0 512 512" xmlns="http://www.w3.org/2000/svg">
  <circle cx="256" cy="256" r="256" fill="#ddd"/>
  <g fill="#1a1a1a" transform="translate(-3, -3) scale(0.253)">
    <path d="M 852.937 926.02 C 864.239 912.925 872.02 904.354 890.542 904.766 C 928.664 905.615 924.662 944.648 924.789 971.652 C 924.892 993.372 924.36 1013.99 924.71 1035.57 C 924.753 1038.27 923.183 1039.56 921.457 1041.07 C 914.22 1042.78 904.117 1042.62 896.726 1041.59 C 895.592 1041.43 893.443 1041.02 892.639 1040.15 C 883.922 1030.72 898.796 956.819 886.322 941.174 C 883.89 938.124 880.448 936.593 876.591 936.404 C 871.416 936.151 867.052 938.431 863.456 942.02 C 860.595 944.875 858.504 948.064 857.625 952.04 C 854.996 963.928 857.269 1016.67 857.45 1032.25 C 857.514 1034.78 857.253 1036.07 856.908 1038.56 C 855.799 1039.91 855.234 1041.15 853.799 1041.36 C 847.025 1042.33 831.311 1043.22 825.551 1040.44 C 821.02 1034.99 824.484 970.552 823.739 956.784 C 822.522 934.295 805.431 927.794 792.979 947.184 C 785.201 959.297 795.267 1030.18 788.481 1040.12 C 782.43 1042.18 760.84 1043.81 756.564 1039.48 C 754.777 1032.6 755.908 1003.56 755.938 994.282 C 755.855 965.455 755.952 936.628 756.231 907.802 C 762.915 907.244 769.725 906.358 776.402 906.048 C 790.995 905.371 789.272 916.121 789.115 926.006 C 796.598 914.753 801.399 909.305 814.38 905.133 C 834.709 903.801 843.832 907.788 852.937 926.02 z"/>
    <path d="M 1240.39 903.405 C 1301.89 905.039 1309.43 988.186 1279.49 1027.55 C 1270.44 1039.46 1256.08 1044.46 1241.61 1045.46 C 1228.52 1044.63 1218.02 1042.2 1207.75 1033.17 C 1175.24 1004.58 1176.28 932.685 1215.4 909.859 C 1223.75 904.988 1231.11 904.058 1240.39 903.405 z"/>
    <path d="M 1238.06 929.043 C 1260.08 928.404 1261.18 958.574 1261.05 974.629 C 1260.92 990.828 1260.74 1012.37 1244.04 1020.36 C 1219.17 1019.97 1219.77 987.907 1219.96 969.757 C 1220.12 954.601 1222.06 935.094 1238.06 929.043 z" fill="#ddd"/>
    <path d="M 1001.88 903.462 C 1077.15 904.109 1044.23 959.83 1054.89 1007.7 C 1055.6 1010.91 1062.39 1020.32 1064.68 1023.86 C 1056.66 1031.18 1049.4 1038.1 1040.18 1043.87 C 1031.06 1037.42 1029.39 1035.5 1023.58 1025.97 C 1022.05 1027.71 1020.26 1029.74 1018.59 1031.33 C 1008.79 1040.6 995.652 1045.48 982.184 1044.85 C 968.829 1044.1 961.27 1038.34 952.758 1029.09 C 944.244 1014.57 943.95 991.474 955.591 978.444 C 971.211 960.963 997.246 959.163 1019.12 957.537 C 1019.11 946.207 1019.05 933.176 1005.76 928.86 C 1001.43 927.472 996.713 927.909 992.705 930.07 C 984.498 934.441 982.352 941.299 980.115 949.375 C 973.877 948.932 952.468 947.923 951.261 944.244 C 945.761 927.48 968.648 908.807 983.007 905.967 C 994.483 903.698 994.485 903.855 1001.88 903.462 z"/>
    <path d="M 1013.47 977.369 C 1016.02 977.194 1015.29 977.018 1017.44 977.905 C 1019.17 981.501 1019.39 988.044 1018.89 991.999 C 1016.61 1010.1 1008.28 1021.49 989.55 1019.14 C 988.929 1018.73 988.319 1018.31 987.718 1017.87 C 978.246 1010.92 976.892 998.774 984.684 989.825 C 993.096 980.166 1001.54 978.667 1013.47 977.369 z" fill="#ddd"/>
    <path d="M 673.556 904.361 C 677.888 903.835 685.669 903.97 689.873 904.435 C 747.912 910.865 717.908 973.578 730.298 1010.67 C 731.148 1013.22 738.112 1021.49 740.267 1024.13 C 718.306 1042.26 718.545 1051.01 698.115 1026.92 C 679.723 1047.79 650.502 1051.94 629.583 1032.28 C 624.266 1024.7 621.479 1018.78 621.175 1009.33 C 619.789 966.284 660.868 959.205 694.087 957.715 C 694.344 943.521 692.139 922.953 669.478 930.341 C 661.509 932.939 658.066 942.27 655.418 949.79 C 648.811 949.309 634.004 949.053 628.754 946.239 C 622.639 942.961 631.663 925.885 634.486 922.444 C 644.953 909.686 658.094 906.177 673.556 904.361 z"/>
    <path d="M 685.503 977.255 C 688.192 977.041 689.318 977.126 691.968 977.224 C 694.023 979.397 694.564 985.462 694.426 988.412 C 693.56 1006.85 685.748 1020.38 666.234 1020.04 C 654.582 1013.82 651.93 1002.11 659.559 991.236 C 666.387 981.509 674.46 979.077 685.503 977.255 z" fill="#ddd"/>
    <path d="M 738.254 1059.33 C 743.58 1060.79 777.427 1081.55 788.048 1086.17 C 843.374 1110.23 901.756 1120.79 961.627 1119.18 C 989.578 1118.26 1017.32 1114.07 1044.3 1106.7 C 1057 1103.33 1069.54 1099.39 1081.89 1094.88 C 1089.05 1092.25 1108.19 1083.42 1114.82 1085.25 C 1119.87 1091.32 1105.97 1101.38 1101.45 1104.85 C 1037.56 1145.51 960.507 1160.09 886.181 1145.59 C 837.556 1136.08 796.176 1117.35 757.532 1086.31 C 750.313 1080.52 740.285 1073.13 735.23 1065.6 C 735.299 1062.04 735.572 1062.87 738.254 1059.33 z"/>
    <path d="M 1373.59 905.175 C 1376.09 904.883 1378.6 904.72 1381.11 904.687 C 1420.3 903.972 1415.04 944.991 1415.06 971.38 L 1415.01 1041.28 C 1409.87 1041.72 1404.29 1041.95 1399.13 1041.97 C 1391.42 1042 1382.11 1043.56 1381.77 1033.01 C 1381.02 1009.84 1382.01 986.624 1381.82 963.425 C 1381.73 952.402 1381.26 934.148 1365.26 936.666 C 1357.76 937.869 1354.4 941.334 1350.17 947.465 C 1343.74 966.908 1351.78 1030.27 1346.37 1040.11 C 1341.78 1042.96 1332.42 1042.17 1327.04 1042.08 C 1323.21 1042.01 1318.73 1041.98 1316.04 1038.84 C 1313.35 1035.69 1314.4 918.314 1315.01 907.273 C 1318.68 907.154 1323.13 907.01 1326.75 906.713 C 1346.14 905.118 1346.22 910.215 1346.06 927.25 C 1355.06 914.531 1358.69 909.531 1373.59 905.175 z"/>
    <path d="M 1118.99 1051.39 C 1153.05 1046.92 1163.4 1058.91 1153.15 1089.96 C 1150.17 1098.98 1133.93 1140.09 1121.16 1135.39 C 1118.65 1129.39 1123.06 1122.86 1125.68 1117.26 C 1158.64 1041.26 1096.17 1078.63 1075.75 1069.43 L 1075.23 1067.73 C 1081.79 1057.14 1107.38 1052.7 1118.99 1051.39 z"/>
  </g>
</svg>
