<svg xmlns="http://www.w3.org/2000/svg" xmlns:xlink="http://www.w3.org/1999/xlink" width="400" zoomAndPan="magnify" viewBox="0 0 210.75 210.749996" height="281" preserveAspectRatio="xMidYMid meet" version="1.0"><path fill="#ffffff" d="M 27.378906 150.085938 L 27.378906 125 L 46.28125 125 L 46.28125 128.433594 C 46.28125 130.613281 46.210938 131.871094 46.109375 131.871094 C 45.988281 131.871094 45.9375 136.214844 45.9375 144.585938 L 45.9375 157.304688 L 68.789062 157.304688 C 83.910156 157.304688 91.640625 157.25 91.640625 157.132812 C 91.640625 157.023438 92.449219 156.953125 93.703125 156.953125 L 95.765625 156.953125 L 95.765625 161.425781 C 95.765625 164.296875 95.695312 165.894531 95.59375 165.894531 C 95.492188 165.894531 95.421875 167.492188 95.421875 170.359375 L 95.421875 174.828125 L 94.566406 174.828125 C 94.097656 174.828125 93.703125 174.914062 93.703125 175 C 93.703125 175.101562 92.84375 175.167969 91.46875 175.167969 C 90.097656 175.167969 89.238281 175.101562 89.238281 175 C 89.238281 174.875 81.621094 174.828125 66.726562 174.828125 C 51.828125 174.828125 44.21875 174.875 44.21875 175 C 44.21875 175.121094 41.296875 175.167969 35.800781 175.167969 L 27.378906 175.167969 Z M 27.378906 150.085938 " fill-opacity="1" fill-rule="nonzero"/><path fill="#ffffff" d="M 105.265625 174.914062 C 105.007812 174.621094 104.972656 174.140625 105.214844 174.140625 C 105.335938 174.140625 105.390625 171.5625 105.390625 166.75 C 105.390625 161.9375 105.4375 159.359375 105.5625 159.359375 C 105.664062 159.359375 105.734375 159.050781 105.734375 158.675781 C 105.734375 158.296875 105.664062 157.988281 105.5625 157.988281 C 105.472656 157.988281 105.390625 157.832031 105.390625 157.644531 C 105.390625 157.421875 105.507812 157.304688 105.734375 157.304688 C 105.917969 157.304688 106.074219 157.234375 106.074219 157.132812 C 106.074219 157.007812 112.3125 156.953125 124.457031 156.953125 C 136.605469 156.953125 142.84375 157.007812 142.84375 157.132812 C 142.84375 157.234375 145.078125 157.304688 149.203125 157.304688 L 155.5625 157.304688 L 155.5625 155.238281 C 155.5625 153.984375 155.492188 153.175781 155.390625 153.175781 C 155.265625 153.175781 155.21875 146.527344 155.21875 133.589844 L 155.21875 114.003906 L 156.246094 114.003906 C 156.816406 114.003906 157.277344 114.070312 157.277344 114.175781 C 157.277344 114.277344 157.742188 114.34375 158.308594 114.34375 C 158.878906 114.34375 159.339844 114.414062 159.339844 114.515625 C 159.339844 114.621094 160.660156 114.6875 162.949219 114.6875 C 165.234375 114.6875 166.558594 114.621094 166.558594 114.515625 C 166.558594 114.429688 166.867188 114.34375 167.242188 114.34375 C 167.621094 114.34375 167.929688 114.277344 167.929688 114.175781 C 167.929688 114.085938 168.238281 114.003906 168.621094 114.003906 C 168.996094 114.003906 169.304688 113.933594 169.304688 113.832031 C 169.304688 113.742188 169.703125 113.660156 170.164062 113.660156 C 170.644531 113.660156 171.023438 113.589844 171.023438 113.488281 C 171.023438 113.386719 171.589844 113.316406 172.398438 113.316406 L 173.769531 113.316406 L 173.769531 175.167969 L 139.632812 175.167969 C 110.355469 175.15625 105.4375 175.121094 105.265625 174.914062 Z M 105.265625 174.914062 " fill-opacity="1" fill-rule="nonzero"/><path fill="#ffffff" d="M 61.746094 134.445312 L 61.746094 125.34375 L 88.546875 125.34375 C 106.296875 125.34375 115.351562 125.289062 115.351562 125.171875 C 115.351562 125.046875 119.5625 125 127.65625 125 C 138.085938 125 139.992188 125.035156 140.199219 125.238281 C 140.472656 125.527344 140.527344 126.027344 140.265625 126.027344 C 140.164062 126.027344 140.09375 127.96875 140.09375 131.527344 C 140.09375 135.085938 140.027344 137.023438 139.921875 137.023438 C 139.820312 137.023438 139.75 137.765625 139.75 138.917969 C 139.75 140.066406 139.820312 140.808594 139.921875 140.808594 C 140.027344 140.808594 140.09375 141.371094 140.09375 142.179688 L 140.09375 143.558594 L 61.746094 143.558594 Z M 61.746094 134.445312 " fill-opacity="1" fill-rule="nonzero"/><path fill="#ffffff" d="M 27.378906 106.785156 L 27.378906 97.851562 L 83.910156 97.851562 C 121.488281 97.851562 140.4375 97.898438 140.4375 98.023438 C 140.4375 98.125 140.371094 98.195312 140.265625 98.195312 C 140.148438 98.195312 140.09375 101.167969 140.09375 106.785156 L 140.09375 115.375 L 85.96875 115.375 C 50.011719 115.375 31.847656 115.429688 31.847656 115.546875 C 31.847656 115.648438 30.988281 115.71875 29.613281 115.71875 L 27.378906 115.71875 Z M 27.378906 106.785156 " fill-opacity="1" fill-rule="nonzero"/><path fill="#ffffff" d="M 155.5625 100.257812 C 155.5625 99.878906 155.492188 99.566406 155.390625 99.566406 C 155.265625 99.566406 155.21875 92.351562 155.21875 78.265625 C 155.21875 64.175781 155.265625 56.957031 155.390625 56.957031 C 155.492188 56.957031 155.5625 56.800781 155.5625 56.613281 C 155.5625 56.269531 155.4375 56.269531 130.476562 56.269531 L 105.390625 56.269531 L 105.390625 54.378906 C 105.390625 53.226562 105.316406 52.488281 105.214844 52.488281 C 105.097656 52.488281 105.042969 49.964844 105.042969 45.273438 L 105.042969 38.054688 L 106.589844 38.054688 C 107.503906 38.054688 108.140625 38.125 108.140625 38.226562 C 108.140625 38.351562 118.960938 38.398438 140.265625 38.398438 C 161.574219 38.398438 172.398438 38.351562 172.398438 38.226562 C 172.398438 38.144531 172.707031 38.054688 173.085938 38.054688 L 173.769531 38.054688 L 173.769531 100.941406 L 170.507812 100.941406 C 168.449219 100.941406 167.242188 100.875 167.242188 100.769531 C 167.242188 100.667969 166.042969 100.601562 163.980469 100.601562 C 161.917969 100.601562 160.714844 100.667969 160.714844 100.769531 C 160.714844 100.875 159.734375 100.941406 158.136719 100.941406 L 155.5625 100.941406 Z M 155.5625 100.257812 " fill-opacity="1" fill-rule="nonzero"/><path fill="#ffffff" d="M 27.378906 63.140625 L 27.378906 38.054688 L 29.785156 38.054688 C 31.28125 38.054688 32.191406 38.125 32.191406 38.226562 C 32.191406 38.351562 42.847656 38.398438 63.804688 38.398438 C 84.769531 38.398438 95.421875 38.351562 95.421875 38.226562 C 95.421875 38.144531 95.503906 38.054688 95.59375 38.054688 C 95.710938 38.054688 95.765625 41.203125 95.765625 47.160156 L 95.765625 56.269531 L 71.539062 56.269531 C 55.507812 56.269531 47.308594 56.214844 47.308594 56.097656 C 47.308594 56.011719 47.089844 55.925781 46.796875 55.925781 L 46.28125 55.925781 L 46.28125 88.226562 L 27.378906 88.226562 Z M 27.378906 63.140625 " fill-opacity="1" fill-rule="nonzero"/><path fill="#ffffff" d="M 61.746094 78.777344 C 61.746094 72.59375 61.796875 69.324219 61.917969 69.324219 C 62.019531 69.324219 62.089844 69.414062 62.089844 69.5 C 62.089844 69.605469 63.34375 69.671875 65.523438 69.671875 C 67.707031 69.671875 68.960938 69.742188 68.960938 69.84375 C 68.960938 69.960938 76.691406 70.015625 91.816406 70.015625 C 106.933594 70.015625 114.667969 69.960938 114.667969 69.84375 C 114.667969 69.722656 119.011719 69.671875 127.382812 69.671875 L 140.09375 69.671875 L 140.09375 73.109375 C 140.09375 75.289062 140.027344 76.542969 139.921875 76.542969 C 139.820312 76.542969 139.75 78.605469 139.75 82.386719 L 139.75 88.226562 L 139.238281 88.226562 C 138.964844 88.226562 138.722656 88.15625 138.722656 88.054688 C 138.722656 87.9375 130.648438 87.882812 114.839844 87.882812 C 99.027344 87.882812 90.953125 87.9375 90.953125 88.054688 C 90.953125 88.175781 85.96875 88.226562 76.351562 88.226562 L 61.746094 88.226562 Z M 61.746094 78.777344 " fill-opacity="1" fill-rule="nonzero"/></svg>