<svg width="129" height="55" viewBox="0 0 129 55" fill="none" xmlns="http://www.w3.org/2000/svg">
<path d="M16.5704 21.1376C17.5812 21.0874 19.0541 21.1418 20.1205 21.1381L27.3858 21.1309C28.2717 21.1361 29.1581 21.133 30.0439 21.1215C30.5686 21.1163 31.1156 21.098 31.6397 21.1448C32.812 21.2497 33.979 22.3757 34.0772 23.5582C34.1419 24.3294 34.1108 25.1691 34.109 25.9508L34.1037 30.3983L34.1072 35.6823C34.1049 36.6496 34.1378 37.638 34.0367 38.5982C33.892 39.9655 32.7573 40.8969 31.428 41.034L21.4117 41.0304C19.8416 41.0275 18.2718 41.051 16.6999 41.0151C15.4585 40.991 14.466 40.1409 14.1105 38.9671C13.9578 38.4629 14.0221 37.4656 14.0224 36.9078L14.0288 26.8358C14.0298 25.7572 13.9988 24.643 14.0721 23.5703C14.1578 22.3177 15.369 21.2908 16.5704 21.1376Z" fill="#FCFBFB"/>
<path d="M2.68813 7.07384C2.90547 7.06119 3.12299 7.0526 3.34068 7.04801C6.5294 6.97906 9.73364 7.04748 12.9237 7.04254C13.7991 7.04119 16.8239 6.91963 17.5371 7.09367C18.0769 7.22534 18.6604 7.76251 19.0526 8.14424C19.4472 8.52837 19.8398 9.00959 20.017 9.53781C20.3015 10.3863 20.1596 13.8944 20.1716 15.0528C19.6529 15.0898 18.941 15.0623 18.4077 15.0647C17.0607 15.0768 15.7135 15.0742 14.3665 15.057C11.8074 15.0348 9.43684 14.7007 8.19719 17.5088C7.87227 18.5083 7.98662 21.0943 7.98962 22.272L7.99532 26.9855C6.71145 26.9684 3.25757 27.2106 2.26392 26.7015C1.4489 26.284 0.342959 25.1373 0.09856 24.2372C-0.0652549 23.634 0.0453284 20.9084 0.0429168 20.0991L0.039858 13.6155C0.0395051 12.3521 0.0144473 11.0549 0.0844437 9.7951C0.0993252 9.52734 0.165203 9.34866 0.292961 9.11832C0.833168 8.14465 1.61489 7.40238 2.68813 7.07384Z" fill="#FCFBFB"/>
<path d="M3.41244 35.0869C4.8686 35.0757 6.53975 35.0328 7.97968 35.0934C8.15778 37.8992 7.78704 41.204 8.06391 43.9881C8.18278 45.1842 9.75417 46.6781 10.8815 46.8875C11.7421 47.047 13.1851 46.9928 14.1542 46.9917C16.1564 46.9805 18.1587 46.9793 20.161 46.9893C20.1899 47.8424 20.1415 48.7555 20.1566 49.5939C20.1858 51.216 20.3471 52.5663 19.088 53.7966C18.3959 54.4726 17.7627 54.9091 16.7382 54.9356C13.6107 54.8991 10.4681 54.9509 7.3333 54.9227C5.84814 54.9086 4.18705 54.9992 2.71119 54.8609C2.29621 54.7826 1.86141 54.5355 1.53325 54.2914C0.949456 53.8572 0.229495 52.9788 0.0807384 52.2451C0.000801451 51.8515 0.0401534 50.7001 0.037036 50.2441L0.0360343 45.7979L0.0277986 40.791C0.0298573 39.406 -0.220187 37.7986 0.741409 36.7313C1.49037 35.9 2.25645 35.2087 3.41244 35.0869Z" fill="#FCFBFB"/>
<path d="M30.9509 7.06972C32.4785 7.00848 45.0561 6.96517 45.5461 7.14856C46.4472 7.48587 47.3724 8.42282 47.7459 9.304C47.883 9.62724 47.9136 9.94313 47.9318 10.2898C48.0618 12.8029 47.9577 15.3653 47.9518 17.8849C47.9477 19.7545 48.0542 21.6686 47.963 23.5315C47.9465 23.871 47.9171 24.2174 47.7818 24.5322C47.3024 25.644 46.2848 26.4644 45.1843 26.9033C44.5943 27.0375 40.9334 26.9882 40.0669 26.9952C40.0516 24.9112 40.1246 22.8014 40.0887 20.7286C40.0581 18.9701 40.4287 17.528 39.0893 16.1686C38.1376 15.1263 37.1941 15.0819 35.8707 15.0645C33.3032 15.0306 30.6998 15.1146 28.1364 15.0342C28.114 13.7345 27.9046 10.4494 28.374 9.39514C28.8752 8.27026 29.8286 7.51211 30.9509 7.06972Z" fill="#FCFBFB"/>
<path d="M40.1505 35.0734C41.5569 35.0792 42.9603 35.0528 44.3708 35.0645C45.4584 35.0739 46.0431 35.5358 46.806 36.2612C47.8059 37.2179 47.9706 37.8286 47.9677 39.1742C47.9712 43.288 47.9589 47.3729 47.9565 51.4896C48.0459 52.8017 46.9954 54.242 45.7902 54.7038C44.9596 55.0221 43.0944 54.9233 42.1262 54.9256H35.7966C33.5337 54.9162 30.6204 55.4693 29.074 53.6954C27.9664 52.4251 28.1005 51.3555 28.1046 49.7705C28.107 48.8226 28.0864 47.916 28.134 46.9852L33.8037 46.9911C34.8231 46.9905 35.9171 47.0693 36.9295 46.944C37.2977 46.8987 37.6576 46.7693 37.9876 46.6028C38.8099 46.1874 39.5552 45.4584 39.8775 44.5841C40.2252 43.6392 40.0934 38.2969 40.0787 36.9602C40.0734 36.5066 39.9699 35.5329 40.1175 35.151C40.1275 35.1245 40.1393 35.0992 40.1505 35.0734Z" fill="#FCFBFB"/>
<path d="M68.8926 49.6104C66.3535 49.6104 64.14 49.0488 62.252 47.9258C60.3639 46.7865 58.891 45.1914 57.833 43.1406C56.7913 41.0736 56.2705 38.6322 56.2705 35.8164C56.2705 33.0007 56.7913 30.5674 57.833 28.5166C58.8747 26.4495 60.3314 24.8545 62.2031 23.7314C64.0749 22.5921 66.2559 22.0225 68.7461 22.0225C70.1621 22.0225 71.5863 22.2503 73.0186 22.7061C74.4508 23.1455 75.7611 23.9186 76.9492 25.0254C78.1374 26.1322 79.0895 27.654 79.8057 29.5908C80.5218 31.5114 80.8799 33.9528 80.8799 36.915H59.4688V33.375H76.5342L75.46 34.8398C75.3786 32.6914 75.0205 30.9661 74.3857 29.6641C73.7673 28.3457 72.9535 27.3936 71.9443 26.8076C70.9515 26.2054 69.8529 25.9043 68.6484 25.9043C67.1673 25.9043 65.8978 26.3031 64.8398 27.1006C63.7982 27.8818 63.0007 29.013 62.4473 30.4941C61.8939 31.9753 61.6172 33.7656 61.6172 35.8652C61.6172 38.9577 62.2357 41.3665 63.4727 43.0918C64.7259 44.8008 66.5244 45.6553 68.8682 45.6553C70.5283 45.6553 71.9281 45.2402 73.0674 44.4102C74.2067 43.5638 75.0531 42.335 75.6064 40.7236L80.3184 42.1641C79.6836 43.7754 78.8128 45.1344 77.7061 46.2412C76.5993 47.348 75.2972 48.1862 73.7998 48.7559C72.3024 49.3255 70.6667 49.6104 68.8926 49.6104ZM92.3057 49C91.0036 49 89.9294 48.6175 89.083 47.8525C88.2367 47.0876 87.8135 46.0785 87.8135 44.8252V26.5635H83.6875V22.6328H87.8135V17.2129L92.7695 16.0898V22.6328H97.8965V26.5635H92.7695V43.7266C92.7695 44.2637 92.8428 44.6217 92.9893 44.8008C93.152 44.9798 93.4857 45.0693 93.9902 45.0693H98.0186V49H92.3057ZM113.888 49.6104C111.365 49.6104 109.135 49.0244 107.198 47.8525C105.278 46.6807 103.78 45.0612 102.706 42.9941C101.632 40.9271 101.095 38.5345 101.095 35.8164C101.095 33.0983 101.632 30.7057 102.706 28.6387C103.78 26.5716 105.278 24.9521 107.198 23.7803C109.135 22.6084 111.365 22.0225 113.888 22.0225C116.41 22.0225 118.632 22.6084 120.553 23.7803C122.49 24.9521 123.995 26.5716 125.069 28.6387C126.144 30.7057 126.681 33.0983 126.681 35.8164C126.681 38.5345 126.144 40.9271 125.069 42.9941C123.995 45.0612 122.49 46.6807 120.553 47.8525C118.632 49.0244 116.41 49.6104 113.888 49.6104ZM113.888 45.6553C116.199 45.6553 118.022 44.7764 119.356 43.0186C120.691 41.2445 121.358 38.8438 121.358 35.8164C121.358 32.7728 120.691 30.3721 119.356 28.6143C118.022 26.8564 116.199 25.9775 113.888 25.9775C111.576 25.9775 109.754 26.8564 108.419 28.6143C107.084 30.3721 106.417 32.7728 106.417 35.8164C106.417 38.8438 107.084 41.2445 108.419 43.0186C109.754 44.7764 111.576 45.6553 113.888 45.6553Z" fill="white"/>
</svg>
