<svg version="1.1" xmlns="http://www.w3.org/2000/svg" style="display: block;" viewBox="0 0 2048 2048" width="1024" height="1024" preserveAspectRatio="none">
<defs>
	<linearGradient id="Gradient1" gradientUnits="userSpaceOnUse" x1="1018.91" y1="2044.35" x2="1028.08" y2="2.67241">
		<stop class="stop0" offset="0" stop-opacity="1" stop-color="rgb(72,16,23)"/>
		<stop class="stop1" offset="1" stop-opacity="1" stop-color="rgb(117,43,49)"/>
	</linearGradient>
</defs>
<path transform="translate(0,0)" fill="url(#Gradient1)" d="M 0 0 L 943.624 0 L 1102.29 0 L 2048 0 L 2048 958.06 L 2048 1089.56 L 2048 2048 L 1103.41 2048 L 940.382 2048 L 0 2048 L 0 1090.52 L 0 955.685 L 0 0 z"/>
<path transform="translate(0,0)" fill="rgb(0,0,0)" d="M 2048 1089.56 L 2048 2048 L 1103.41 2048 C 1103.81 2046.69 1104.28 2045.14 1104.82 2043.35 C 1116.08 2037.84 1138.66 2044.82 1148.8 2038.85 C 1155.96 2034.62 1171.13 2037.37 1179.67 2036.04 C 1186.62 2034.96 1180.5 2032.1 1186.64 2031.6 C 1194.16 2030.99 1200.46 2032.43 1208 2030.77 C 1208.79 2029.61 1209.42 2028.48 1210.05 2027.23 C 1216.78 2025.55 1222.17 2028.12 1230.39 2026.71 L 1232.18 2023.27 C 1235.03 2022.45 1245 2023.06 1249.43 2022.74 C 1251.05 2021.15 1251.02 2021.13 1251.96 2019.16 C 1257.46 2017.59 1262.1 2018.94 1267.77 2018.31 C 1271.23 2018.44 1270.51 2014.53 1272.78 2014.26 C 1282.41 2013.13 1285.08 2016.84 1289.4 2009.8 C 1289.74 2009.26 1309.05 2006.45 1311.13 2005.71 C 1314.78 2004.41 1317.53 2006.4 1320.15 2001.36 C 1329.4 1998.93 1347.87 1994.61 1356.76 1991.62 C 1366.32 1988.41 1366.98 1986.05 1375.83 1982.86 C 1393.73 1978.08 1409.62 1970.03 1426.94 1963.89 C 1431.38 1962 1436.17 1958.13 1440.57 1956.44 C 1468 1945.93 1497.3 1931.32 1522.81 1916.91 C 1703.23 1815.82 1848.7 1662.31 1939.95 1476.72 C 1956.03 1443.87 1971.61 1411.09 1983.08 1376.25 C 1983.99 1373.46 1984.54 1373.75 1986.8 1371.75 C 1988.29 1365.68 1989.59 1358.78 1991.39 1352.74 C 1994.05 1343.81 2004.58 1321.06 2004.45 1312.81 C 2004.25 1299.66 2006.61 1310.02 2008.78 1300.5 C 2012.57 1283.88 2016.36 1270.93 2018.88 1253.87 L 2021.71 1252.39 C 2024.85 1243.46 2018.37 1236.63 2026.68 1230.82 C 2027.93 1226.05 2026.66 1217.89 2027.14 1211.53 C 2028.67 1209.95 2028.72 1209.95 2030.61 1209 C 2032.25 1201 2030.25 1194.44 2031.36 1185.69 C 2033.45 1184.69 2032.81 1185.08 2034.68 1183.47 C 2036.2 1152.79 2043.48 1123.27 2042.35 1091.92 C 2044.19 1090.07 2045.07 1090.36 2048 1089.56 z"/>
<path transform="translate(0,0)" fill="rgb(0,0,0)" d="M 0 1090.52 C 1.08095 1090.69 5.87307 1091.02 5.99843 1092.1 C 8.48626 1113.55 5.64121 1136.25 10.9244 1157.55 C 12.919 1165.59 12.7496 1174.75 13.3526 1182.96 C 13.5077 1185.76 15.9507 1184.31 16.5221 1187.35 C 17.8168 1194.24 15.8291 1202.15 17.4023 1208.8 L 20.6451 1210.31 C 22.1617 1217.83 19.7393 1223.21 21.5002 1229.58 L 24.739 1231.3 C 26.4886 1238.55 23.5489 1244.4 25.6139 1251.64 C 34.2312 1256.71 29.2808 1284.05 38.4441 1289.92 C 42.5694 1317 53.7403 1345.75 61.8773 1372.13 C 63.1187 1376.16 67.4785 1383.9 69.2339 1388.46 C 107.765 1491.01 162.715 1586.61 231.933 1671.52 C 245.602 1688.18 261.098 1704.87 276.167 1720.24 C 278.501 1722.76 280.031 1728.21 282.551 1730.29 C 307.146 1750.63 329.354 1776.4 353.795 1796.48 C 370.829 1810.47 388.491 1825.88 405.997 1839.09 C 468.991 1886.89 537.423 1927.07 609.864 1958.79 C 622.537 1964.33 639.004 1972.55 650.726 1976.62 C 663.111 1980.92 671.016 1982.76 683.699 1989.18 C 691.248 1992.99 708.53 1993.87 717.833 2000.67 C 718.82 2001.4 724.845 1999.66 728.636 2001.65 C 730.923 2005.41 730.833 2004.94 736.653 2006.31 C 743.815 2007.81 751.126 2009.03 758.292 2010.49 C 759.05 2010.65 759.588 2013.7 762.457 2014.26 C 769.556 2015.64 775.124 2011.17 778.284 2018.42 C 778.735 2019.45 791.377 2018.15 794.825 2019.16 C 799.703 2027.43 806.505 2020.8 815.193 2023.48 L 817.076 2026.76 C 824.545 2028.15 832.447 2026.08 837.89 2027.48 C 839.234 2029.95 838.951 2030.72 840.844 2031.1 C 846.289 2032.2 853.461 2030.99 859.045 2031.32 C 865.734 2031.73 860.362 2035.36 868.061 2036.05 C 875.244 2036.69 889.419 2034.82 895.639 2036.44 L 897.154 2039.67 C 907.731 2042.3 927.289 2039.99 938.632 2041.57 C 939.084 2042.19 939.537 2042.8 939.989 2043.42 L 940.382 2048 L 0 2048 L 0 1090.52 z"/>
<path transform="translate(0,0)" fill="rgb(0,0,0)" d="M 1102.29 0 L 2048 0 L 2048 958.06 L 2043.42 956.922 C 2040.16 952.608 2040.82 905.392 2039.15 896.283 L 2035.51 894.661 C 2034.87 889.416 2035.72 873.535 2035.47 866.578 C 2033.71 864.475 2033.92 864.877 2031.38 863.842 C 2029.97 858.04 2033.06 845.263 2030.35 838.78 L 2027.55 837.663 C 2023.71 829.766 2032.05 819.713 2023.25 815.434 C 2021.33 809.296 2023.54 803.441 2022.2 797.285 C 2021.44 793.77 2018.32 796.771 2018.07 791.669 C 2017.81 786.214 2019.45 782.632 2017.65 777.335 L 2014.97 776.04 C 2010.16 769.269 2019.54 762.172 2009.62 758.28 C 2008.08 753.903 2010.36 748.541 2008.72 742.676 L 2005.97 741.521 C 2003.78 736.794 2002.07 720.515 2000.02 713.832 L 1996.6 712.334 C 1995.76 710.568 1995.63 710.866 1995.75 709.21 C 1996.63 697.782 1994.84 702.996 1991.77 697.652 C 1991.89 695.395 1992.29 691.277 1991.34 689.397 C 1987.25 681.214 1984.17 672.511 1981.02 663.913 C 1979.6 660.011 1978.29 655.226 1977.2 651.149 C 1977.2 651.149 1973.19 647.745 1973.19 647.745 C 1970.49 638.713 1967.57 629.715 1964.43 620.827 C 1964.43 620.827 1960.92 618.195 1960.92 618.194 C 1958.69 612.93 1956.46 605.472 1953.93 600.503 C 1946.58 586.034 1939.54 569.958 1932.2 555.704 C 1909.68 511.975 1885.04 470.295 1856.52 430.18 C 1852.43 424.427 1850.11 418.667 1844.72 414.123 C 1842.6 412.336 1839.89 409.517 1837.85 407.542 C 1837.92 406.812 1837.98 406.083 1838.05 405.353 L 1838.26 403.469 C 1835.16 399.888 1825.25 389.563 1823.47 387.089 C 1812.91 372.39 1806.23 364.891 1793.29 352.326 L 1793.71 349.3 C 1760.85 316.268 1730.38 281.475 1694.22 251.805 C 1686.48 245.457 1679.46 237.607 1671.81 230.976 C 1670.84 231.044 1668.01 231.335 1667.34 230.647 C 1660.39 223.509 1653.49 216.301 1646.22 209.48 C 1639.69 211.189 1634.89 202.78 1630.05 197.729 C 1621.08 197.596 1623.31 199.018 1617.03 190.488 C 1614.82 183.984 1606.94 185.283 1606.39 184.229 C 1602.39 176.451 1589.82 173.112 1584.41 169.156 C 1556.53 148.758 1526.03 132.813 1495.58 116.789 C 1472.33 104.553 1449.44 93.3762 1425.44 82.7118 C 1420.67 80.5886 1414.56 79.5281 1409.08 77.3887 L 1407.6 73.4911 C 1405.64 72.4679 1401.5 72.2757 1399.54 72.803 C 1394.08 74.2749 1385.35 65.2285 1380.75 64.2413 C 1373.67 62.7239 1367.94 61.803 1360.68 59.1509 L 1359.46 56.1403 C 1355.67 53.937 1353.3 56.7701 1347.34 55.4744 L 1346.08 52.0027 C 1342.36 49.6866 1339.91 52.5903 1333.76 50.5501 L 1332.11 46.87 C 1328.72 45.7222 1324.6 46.8796 1319.97 46.7354 C 1319.18 45.2666 1318.55 44.1941 1317.65 42.7852 C 1309.29 41.1049 1298.51 38.9293 1289.96 37.3384 C 1289.12 36.202 1288.29 35.0656 1287.45 33.9291 C 1276.99 32.0733 1263.58 30.345 1253.38 28.2582 L 1251.66 25.2774 C 1243.88 22.0793 1234.85 29.2396 1231.3 20.6953 C 1227.12 19.0168 1218.44 21.7295 1210.56 20.0032 C 1209.24 18.2259 1209.61 18.8149 1208.61 17.1952 L 1208.01 16.1938 C 1199.54 14.4943 1193.48 17.3886 1184.36 15.5645 C 1183.49 13.9358 1183.2 13.1181 1182.69 11.3877 C 1174.15 9.56592 1161.04 12.7342 1150.95 10.4089 C 1150.59 9.76039 1150.23 9.11504 1149.86 8.47295 C 1149.96 8.63782 1148.65 6.43893 1148.63 6.43701 C 1134.56 4.8245 1119.41 7.08738 1105.38 4.68593 C 1103.94 4.43931 1103.11 1.64682 1102.29 0 z"/>
<path transform="translate(0,0)" fill="rgb(0,0,0)" d="M 0 0 L 943.624 0 C 943.421 4.04417 944.156 3.91243 941.99 6.0043 C 928.796 7.17392 910.661 5.76758 899.939 7.28796 C 899.282 9.04585 899.207 9.27552 898.021 10.8054 C 887.013 12.3543 876.405 9.95012 866.382 11.4536 C 865.679 12.7987 864.965 14.1377 864.239 15.4705 C 855.924 16.6768 846.945 15.0791 840.173 16.2624 C 839.513 17.5142 838.858 18.6199 838.007 19.7574 C 830.952 21.0098 822.828 19.5426 817.912 20.9652 L 816.445 23.8636 C 808.875 25.4736 802.092 23.7297 796.686 25.5056 L 795.167 28.4873 C 788.082 30.4479 781.138 28.1228 777.352 30.2244 L 776.37 32.6243 C 768.356 35.3297 763.628 30.7714 757.762 37.7049 C 756.836 38.7987 747.587 36.9919 743.555 39.0481 L 742.391 41.7169 C 736.626 43.0923 732.086 41.4494 728.418 43.3925 L 727.454 46.0058 C 723.262 47.8478 719.906 45.5868 715.986 46.833 C 712.58 47.9158 716.275 49.4507 712.391 50.4803 C 709.658 51.2048 705.674 49.9296 704.394 50.2209 C 700.541 51.0973 703.021 54.1848 699.687 54.8913 C 695.341 55.8123 692.681 54.0311 689.152 55.2549 C 687.576 55.8018 688.002 58.0434 687.284 58.289 C 671.375 63.7315 653.15 70.5386 637.561 76.1246 C 630.724 78.5748 624.061 83.2864 618.495 85.4904 C 605.949 90.4579 593.183 95.7653 581.544 101.517 C 554.857 114.704 527.391 128.522 501.835 143.678 C 488.557 151.509 475.54 159.776 462.806 168.464 C 457.531 172.069 439.002 185.993 434.412 185.763 C 430.911 189.698 427.6 193.789 424.358 197.939 C 422.666 200.105 417.852 198.976 417.235 199.489 C 404.578 210.029 392.713 220.171 380.995 231.746 C 379.11 231.572 378.015 231.413 376.155 231.056 C 364.949 241.879 353.927 251.154 342.411 261.48 C 298.325 301.008 260.739 340.687 224.105 387.009 C 151.384 478.449 94.7604 581.601 56.6609 692.045 C 52.8653 703.324 49.0324 714.743 45.6973 726.256 C 44.5739 730.135 43.0161 737.344 42.3302 741.597 C 41.3975 742.224 40.4649 742.852 39.5323 743.479 C 37.8481 754.099 35.6505 765.113 33.3266 775.567 C 32.6996 778.387 29.504 773.833 29.7101 782.945 C 29.7934 786.63 30.23 791.238 29.1723 794.511 L 26.1644 796.028 C 24.2867 801.759 25.9639 807.488 25.0498 813.323 C 24.2277 818.569 21.7224 813.425 20.9549 819.36 C 20.2085 825.132 21.0728 831.325 20.1628 836.923 C 19.453 841.288 17.3664 836.25 16.9225 842.828 C 16.5355 848.563 17.2755 854.426 16.752 860.038 C 16.1427 866.569 13.4088 859.989 12.789 867.212 C 12.3181 872.7 13.6072 884.367 12.821 889.059 C 11.0228 899.791 9.86163 887.696 8.24013 902.157 C 7.15366 911.846 8.15989 948.463 5.97275 954.82 C 3.91235 955.153 2.08515 955.47 0 955.685 L 0 0 z"/>
<path transform="translate(0,0)" fill="rgb(254,254,254)" d="M 1213.44 700.886 L 1216.13 701.232 C 1220.34 707.376 1238.22 770.015 1239.8 779.364 C 1226.19 777.469 1215.37 777.804 1201.99 781.725 C 1156.1 795.177 1098.35 846.067 1075.83 887.169 C 1129.86 861.858 1180.64 852.792 1239.91 865.293 C 1303.98 878.834 1359.88 917.652 1394.94 972.957 C 1464.43 1080.53 1435.59 1232.05 1329.1 1304.15 C 1324.71 1307.12 1320.27 1309.99 1315.82 1312.85 C 1302.69 1321.06 1288.8 1327.96 1274.34 1333.46 C 1214.07 1356.54 1147.05 1354.43 1088.35 1327.62 C 1028.32 1300.49 981.684 1250.41 958.876 1188.61 C 927.459 1104.76 950.412 985.631 986.028 905.55 C 1020.24 828.62 1075.67 766.45 1150.71 727.665 C 1172.85 716.22 1190.01 709.653 1213.44 700.886 z"/>
<path transform="translate(0,0)" fill="rgb(94,29,35)" d="M 1124.12 941.029 C 1125.48 941.274 1124.63 941.004 1126.38 942.46 C 1150.36 1033.07 1107.36 1113.64 1019.42 1145.11 L 1017.62 1144.82 C 1016.6 1143.71 1016.46 1143.59 1016.08 1142.07 C 1005.22 1099.46 1013.97 1055.33 1034.88 1017.31 C 1051.89 986.362 1089.56 950.386 1124.12 941.029 z"/>
<path transform="translate(0,0)" fill="rgb(94,29,35)" d="M 1174.99 928.413 C 1247.67 924.812 1314.95 960.179 1347.18 1027.01 C 1349.03 1030.84 1351.9 1036.11 1350.79 1040.35 C 1346.24 1044.8 1331.42 1046.83 1324.46 1048.22 C 1288.55 1053.15 1252.03 1045.72 1220.89 1027.15 C 1185.86 1006.44 1158.22 972.167 1148.07 932.478 C 1156.53 930.256 1166.32 929.265 1174.99 928.413 z"/>
<path transform="translate(0,0)" fill="rgb(94,29,35)" d="M 1355.77 1065.12 C 1358.18 1064.89 1357.31 1064.87 1359.69 1065.48 C 1359.88 1065.84 1360.07 1066.19 1360.25 1066.54 C 1377.79 1137.66 1344.28 1215.61 1282.19 1253.81 C 1270.9 1260.75 1262.16 1264.18 1252.25 1268.48 C 1250.22 1267.37 1249.72 1266.28 1249.03 1263.58 C 1238.56 1222.31 1242.17 1180.25 1261.9 1143.03 C 1281.72 1105.71 1315.45 1077.72 1355.77 1065.12 z"/>
<path transform="translate(0,0)" fill="rgb(94,29,35)" d="M 1061.28 1160.39 C 1135.26 1152.91 1211.99 1203.8 1228.98 1277.17 C 1217.73 1278.57 1203.95 1279.93 1192.75 1280.25 C 1116.61 1281.6 1052.34 1238.91 1023.92 1168.24 C 1035.31 1163.83 1049.2 1161.67 1061.28 1160.39 z"/>
<path transform="translate(0,0)" fill="rgb(254,254,254)" d="M 521.909 700.482 C 544.444 699.378 584.556 699.803 607.162 700.44 C 611.351 711.908 615.529 727.883 619.089 739.983 C 626.1 764.015 633.282 787.998 640.632 811.928 C 673.289 917.455 705.332 1023.17 736.76 1129.07 L 771.436 1243.41 C 777.579 1263.62 784.064 1287.33 792.238 1306.62 C 794.544 1312.06 807.044 1328.4 811.018 1333.83 C 779.463 1334.88 744.246 1334.28 712.474 1334 C 713.845 1331.57 715.154 1329.1 716.4 1326.6 C 726.838 1305.13 716.872 1283.82 710.284 1262.6 L 696.023 1215.69 L 666.446 1118.36 C 660.536 1098.85 654.877 1078.22 648.162 1059.06 C 638.645 1060.52 629.903 1064.45 620.977 1068.01 C 608.474 1073.06 596.316 1078.91 584.581 1085.55 C 518.271 1123.5 466.802 1182.83 438.593 1253.83 C 427.603 1281.25 415.606 1305.95 431.867 1333.88 C 398.839 1334.11 365.809 1334.16 332.78 1334.03 C 338.295 1326.86 351.224 1312.91 353.935 1304.78 C 361.368 1282.5 368.366 1258.73 375.19 1236.28 L 418.048 1095.96 L 485.097 876.523 C 499.091 831.03 513.419 785.17 526.519 739.411 C 531.362 722.491 529.26 715.893 520.791 701.638 L 521.909 700.482 z"/>
<path transform="translate(0,0)" fill="rgb(94,29,35)" d="M 572.308 807.719 C 574.445 811.021 583.177 841.968 584.571 847.238 C 598.47 899.815 618.956 952.739 631.845 1005.31 C 588.46 1021.25 561.783 1032.97 523.517 1059.31 C 510.308 1068.8 500.044 1077.38 487.975 1088.1 C 491.719 1073.12 497.633 1055.04 502.147 1040.02 L 528.835 952.067 C 543.173 905.11 557.153 853.921 572.308 807.719 z"/>
<path transform="translate(0,0)" fill="rgb(254,254,254)" d="M 1393.69 700.426 C 1413.51 699.692 1435.7 700.164 1455.66 700.175 L 1561.41 700.14 L 1668.69 700.123 C 1688.8 700.156 1711.31 699.764 1731.24 700.665 C 1708.89 755.839 1683.37 813.431 1659.82 868.415 L 1562.33 1097.61 L 1518.52 1200.15 C 1510.08 1219.76 1497.32 1247.32 1490.95 1267.02 C 1544.35 1266.24 1598.42 1267.49 1651.89 1266.83 C 1677.77 1266.5 1684.71 1267.62 1705.26 1250.16 C 1712.53 1264.64 1725.2 1314.17 1730.35 1332.7 C 1726.69 1335.24 1416.85 1334.27 1385.12 1333.9 C 1403.98 1288.06 1424.62 1241.36 1444.09 1195.63 L 1547.15 953.125 L 1594.37 842.206 C 1605.01 817.306 1616.01 793.355 1625.02 767.785 L 1509.29 767.872 C 1488.52 767.928 1460.94 766.714 1440.73 770.268 C 1433.59 771.526 1424.56 779.52 1418.95 784.288 C 1410.94 756.378 1402.07 728.261 1393.69 700.426 z"/>
<path transform="translate(0,0)" fill="rgb(254,254,254)" d="M 851.241 700.424 C 870.454 699.698 898.038 699.804 917.203 700.465 C 915.577 832.516 917.089 967.572 916.977 1099.89 L 916.791 1230.41 C 916.767 1245.32 916.788 1260.54 916.738 1275.42 C 916.658 1299.35 916.027 1313.81 930.356 1333.6 C 904.868 1334.68 875.071 1334.02 849.25 1334.02 L 835.494 1333.94 C 840.854 1324.39 847.847 1311.97 848.503 1301 C 849.669 1281.51 849.162 1260.55 849.116 1240.98 L 849.004 1128.15 L 848.994 749.389 C 833.117 754.815 819.343 759.57 802.805 762.874 C 800.271 754.189 797.316 747.595 795.032 738.192 C 808.635 730.799 842.173 702.268 851.241 700.424 z"/>
</svg>