<svg version="1.1" xmlns="http://www.w3.org/2000/svg" style="display: block;" viewBox="0 0 2048 2048" width="1024" height="1024" preserveAspectRatio="none">
<path transform="translate(0,0)" fill="rgb(0,0,0)" d="M 0 0 L 981.079 0 L 1070.75 0 L 2048 0 L 2048 992.215 L 2048 1053.52 L 2048 2048 L 1058.81 2048 L 988.352 2048 L 0 2048 L 0 1052.91 L 0 993.383 L 0 0 z"/>
<path transform="translate(0,0)" fill="rgb(255,255,255)" d="M 1058.81 2048 C 1071.92 2045.45 1104.2 2044.65 1119.25 2043.12 C 1144.95 2040.51 1167.01 2037.47 1192.55 2033.2 C 1356.05 2006.02 1510.42 1939.29 1642.23 1838.81 C 1840.08 1688.87 1976.55 1472 2026.12 1228.74 C 2033.34 1193.36 2038.66 1157.61 2042.03 1121.65 C 2044.07 1100.4 2045.12 1074.04 2048 1053.52 L 2048 2048 L 1058.81 2048 z"/>
<path transform="translate(0,0)" fill="rgb(255,255,255)" d="M 1070.75 0 L 2048 0 L 2048 992.215 C 2046.43 986.164 2044.72 953.472 2043.98 944.422 C 2041.79 916.336 2038.43 888.353 2033.91 860.546 C 2006.37 700.22 1950.9 562.293 1856.52 429.784 C 1711.71 226.653 1497.7 83.4024 1254.7 26.9543 C 1215.28 17.8434 1175.37 10.9426 1135.18 6.28414 C 1117.36 4.24417 1087.55 2.93549 1071.67 0.169685 L 1070.75 0 z"/>
<path transform="translate(0,0)" fill="rgb(255,255,255)" d="M 0 0 L 981.079 0 L 980.107 0.1663 C 961.544 3.19286 934.318 4.16694 914.571 6.31881 C 875.761 10.6315 837.218 17.0813 799.117 25.6388 C 555.899 80.7881 341.096 222.643 194.879 424.677 C 102.715 551.337 41.3311 697.729 15.5943 852.242 C 10.7595 880.645 7.18801 909.248 4.89024 937.967 C 3.88471 949.92 2.45293 983.931 0 993.383 L 0 0 z"/>
<path transform="translate(0,0)" fill="rgb(255,255,255)" d="M 0 1052.91 L 0.163108 1053.88 C 3.1602 1072.74 3.71082 1100.91 5.59946 1121.09 C 9.40287 1160.15 15.333 1198.98 23.3636 1237.4 C 75.4601 1482.11 215.539 1699.21 417.041 1847.52 C 546.382 1943.2 696.552 2006.88 855.248 2033.33 C 881.635 2037.8 908.2 2041.14 934.871 2043.34 C 948.78 2044.52 976.045 2045.76 988.352 2048 L 0 2048 L 0 1052.91 z"/>
<path transform="translate(0,0)" fill="rgb(255,255,255)" d="M 1007.69 59.8927 C 1540.23 50.9341 1979.15 475.47 1987.94 1008.01 C 1996.72 1540.55 1572.05 1979.33 1039.5 1987.95 C 507.206 1996.56 68.6668 1572.12 59.8846 1039.82 C 51.1024 507.524 475.402 68.8472 1007.69 59.8927 z"/>
<path transform="translate(0,0)" fill="rgb(222,117,100)" d="M 531.808 502.938 C 544.979 514.405 563.164 533.72 576.004 546.487 L 659.109 629.092 L 792.223 762.572 C 815.426 785.829 842.711 811.837 865.003 835.417 L 865.236 1176.31 C 979.001 1174.73 1096.63 1175.87 1210.6 1176.12 L 1439.91 1405.24 L 1511.31 1476.07 C 1520.62 1485.3 1540.22 1503.71 1547.53 1513.06 C 1442 1514.62 1332.42 1513.13 1226.63 1513.12 L 530.985 1513.31 L 531.092 792.285 L 531.227 589.589 L 531.017 536.605 C 530.972 528.207 530.618 510.776 531.808 502.938 z"/>
</svg>