<svg version="1.1" xmlns="http://www.w3.org/2000/svg" style="display: block;" viewBox="0 0 2048 2048" width="1024" height="1024" preserveAspectRatio="none">
<path transform="translate(0,0)" fill="rgb(0,0,0)" d="M 987.816 4.55856 C 991.541 4.34822 995.27 4.19625 999 4.10273 C 1271.03 -2.76372 1534.44 99.7988 1730.21 288.807 C 1926.55 476.913 2039.46 735.773 2043.74 1007.65 C 2047.96 1276.21 1945.99 1535.58 1760 1729.36 C 1604.39 1892.41 1399 1999.13 1176.13 2032.73 C 1137.77 2038.73 1099.06 2042.24 1060.25 2043.23 C 790.211 2053.39 527.289 1955.34 329.835 1770.85 C 130.128 1585.41 12.8655 1327.82 4.16449 1055.43 C -4.04345 785.612 95.1294 523.555 279.919 326.77 C 463.972 129.954 718.518 14.0931 987.816 4.55856 z"/>
<path transform="translate(0,0)" fill="rgb(232,113,54)" d="M 984.586 34.0054 C 1531.45 12.3006 1992.33 438.133 2013.84 985.01 C 2035.35 1531.89 1609.36 1992.61 1062.48 2013.93 C 515.863 2035.25 55.4162 1609.51 33.912 1062.9 C 12.4079 516.295 437.986 55.6996 984.586 34.0054 z"/>
<path transform="translate(0,0)" fill="rgb(254,254,254)" d="M 609.412 484.91 L 765.801 484.871 C 820.785 601.676 881.976 717.685 938.287 834.022 C 968.413 896.264 998.329 955.68 1025.36 1019.61 C 1046.94 971.763 1072.81 921.655 1096.39 874.559 L 1220.24 628.942 L 1263.91 542.719 C 1272.86 525.03 1284.35 503.185 1291.89 485.127 L 1438.84 485.154 L 1250.08 840.121 L 1136.16 1055.12 L 1105.72 1111.96 C 1103.16 1116.73 1090 1140.87 1089.85 1143.59 C 1088.17 1174.69 1089.06 1217.15 1089.06 1247.97 L 1089.18 1563.02 L 956.018 1563.1 L 955.818 1252.62 L 955.912 1179.23 C 955.925 1172.72 956.368 1143.79 954.999 1139.75 C 950.405 1126.2 937.073 1102.72 930.045 1089.32 L 872.517 980.208 L 716.813 687.482 C 680.655 620.148 644.855 552.623 609.412 484.91 z"/>
</svg>